<mxfile host="app.diagrams.net" modified="2020-11-26T19:03:29.646Z" agent="5.0 (Macintosh; Intel Mac OS X 10_15_3) AppleWebKit/537.36 (KHTML, like Gecko) Chrome/87.0.4280.67 Safari/537.36" etag="qhjdzDQBueYdPUdihmTz" version="13.10.2" type="github">
  <diagram id="SZ1D2dMNAJkDN81yvN-u" name="Page-1">
    <mxGraphModel dx="1565" dy="1559" grid="1" gridSize="10" guides="1" tooltips="1" connect="1" arrows="1" fold="1" page="1" pageScale="1" pageWidth="850" pageHeight="1100" math="0" shadow="0">
      <root>
        <mxCell id="0" />
        <mxCell id="1" parent="0" />
        <UserObject label="" tooltip="Wardley Mapping Canvas" id="ZytXiSbGGcMKnFnPFabf-16">
          <mxCell style="endArrow=none;dashed=1;html=1;strokeWidth=1;fontSize=26;strokeColor=#000000;" parent="1" edge="1">
            <mxGeometry width="50" height="50" relative="1" as="geometry">
              <mxPoint x="65" y="650.0000000000002" as="sourcePoint" />
              <mxPoint x="65" y="-150" as="targetPoint" />
            </mxGeometry>
          </mxCell>
        </UserObject>
        <mxCell id="ZytXiSbGGcMKnFnPFabf-17" value="" style="endArrow=none;dashed=1;html=1;strokeWidth=1;fontSize=26;strokeColor=#000000;" parent="1" edge="1">
          <mxGeometry width="50" height="50" relative="1" as="geometry">
            <mxPoint x="320.9718309859154" y="235" as="sourcePoint" />
            <mxPoint x="320" y="-140" as="targetPoint" />
            <Array as="points">
              <mxPoint x="320" y="-110" />
            </Array>
          </mxGeometry>
        </mxCell>
        <mxCell id="ZytXiSbGGcMKnFnPFabf-18" value="" style="endArrow=none;dashed=1;html=1;strokeWidth=1;fontSize=26;strokeColor=#000000;" parent="1" edge="1">
          <mxGeometry width="50" height="50" relative="1" as="geometry">
            <mxPoint x="595.9999999999998" y="650.0000000000002" as="sourcePoint" />
            <mxPoint x="595.9999999999998" y="-130" as="targetPoint" />
          </mxGeometry>
        </mxCell>
        <mxCell id="ZytXiSbGGcMKnFnPFabf-19" value="" style="endArrow=classic;html=1;strokeWidth=3;fontSize=26;" parent="1" edge="1">
          <mxGeometry width="50" height="50" relative="1" as="geometry">
            <mxPoint x="-144" y="593.0000000000002" as="sourcePoint" />
            <mxPoint x="-144" y="-160" as="targetPoint" />
          </mxGeometry>
        </mxCell>
        <mxCell id="ZytXiSbGGcMKnFnPFabf-20" value="" style="endArrow=classic;html=1;strokeWidth=3;fontSize=26;" parent="1" edge="1">
          <mxGeometry width="50" height="50" relative="1" as="geometry">
            <mxPoint x="-145.00000000000023" y="593.0000000000002" as="sourcePoint" />
            <mxPoint x="924.9999999999998" y="593.0000000000002" as="targetPoint" />
          </mxGeometry>
        </mxCell>
        <mxCell id="ZytXiSbGGcMKnFnPFabf-21" value="&lt;i&gt;Genesis&lt;/i&gt;&lt;br style=&quot;font-size: 14px&quot;&gt;" style="text;html=1;strokeColor=none;fillColor=none;align=left;verticalAlign=top;whiteSpace=wrap;rounded=0;labelPosition=center;verticalLabelPosition=middle;fontFamily=Courier New;fontStyle=1;fontSize=14;" parent="1" vertex="1">
          <mxGeometry x="-132.00000000000023" y="592" width="136" height="28" as="geometry" />
        </mxCell>
        <mxCell id="ZytXiSbGGcMKnFnPFabf-22" value="&lt;i&gt;Emerging&lt;/i&gt;" style="text;html=1;strokeColor=none;fillColor=none;align=left;verticalAlign=top;whiteSpace=wrap;rounded=0;labelPosition=center;verticalLabelPosition=middle;fontFamily=Courier New;fontStyle=1;fontSize=14;" parent="1" vertex="1">
          <mxGeometry x="96.99999999999977" y="592" width="133" height="28" as="geometry" />
        </mxCell>
        <mxCell id="ZytXiSbGGcMKnFnPFabf-23" value="&lt;i&gt;Converging&lt;/i&gt;" style="text;html=1;strokeColor=none;fillColor=none;align=left;verticalAlign=top;whiteSpace=wrap;rounded=0;labelPosition=center;verticalLabelPosition=middle;fontFamily=Courier New;fontStyle=1;fontSize=14;" parent="1" vertex="1">
          <mxGeometry x="334.9999999999998" y="592" width="165" height="28" as="geometry" />
        </mxCell>
        <mxCell id="ZytXiSbGGcMKnFnPFabf-24" value="&lt;i&gt;Establishing&lt;/i&gt;" style="text;html=1;strokeColor=none;fillColor=none;align=left;verticalAlign=top;whiteSpace=wrap;rounded=0;labelPosition=center;verticalLabelPosition=middle;fontFamily=Courier New;fontStyle=1;fontSize=14;" parent="1" vertex="1">
          <mxGeometry x="608.9999999999998" y="592" width="201" height="28" as="geometry" />
        </mxCell>
        <mxCell id="ZytXiSbGGcMKnFnPFabf-25" value="Evolution" style="text;html=1;strokeColor=none;fillColor=none;align=center;verticalAlign=middle;whiteSpace=wrap;rounded=0;shadow=0;glass=0;comic=0;fontFamily=Courier New;fontSize=17;fontStyle=1" parent="1" vertex="1">
          <mxGeometry x="872" y="602.0000000000002" width="70" height="20" as="geometry" />
        </mxCell>
        <mxCell id="ZytXiSbGGcMKnFnPFabf-26" value="Firstness" style="text;html=1;strokeColor=none;fillColor=none;align=center;verticalAlign=middle;whiteSpace=wrap;rounded=0;shadow=0;glass=0;comic=0;fontFamily=Courier New;fontSize=15;fontStyle=1" parent="1" vertex="1">
          <mxGeometry x="-130" y="-149.99999999999977" width="110" height="20" as="geometry" />
        </mxCell>
        <mxCell id="ZytXiSbGGcMKnFnPFabf-27" value="Thirdness" style="text;html=1;strokeColor=none;fillColor=none;align=center;verticalAlign=middle;whiteSpace=wrap;rounded=0;shadow=0;glass=0;comic=0;fontFamily=Courier New;fontSize=15;fontStyle=1" parent="1" vertex="1">
          <mxGeometry x="798" y="-147.99999999999977" width="110" height="20" as="geometry" />
        </mxCell>
        <mxCell id="ZytXiSbGGcMKnFnPFabf-28" value="Value Chain" style="text;html=1;strokeColor=none;fillColor=none;align=center;verticalAlign=middle;whiteSpace=wrap;rounded=0;shadow=0;glass=0;comic=0;fontFamily=Courier New;fontSize=17;fontStyle=1;rotation=-90;" parent="1" vertex="1">
          <mxGeometry x="-230" y="150.00000000000023" width="130" height="20" as="geometry" />
        </mxCell>
        <mxCell id="ZytXiSbGGcMKnFnPFabf-29" value="Visible" style="text;html=1;strokeColor=none;fillColor=none;align=center;verticalAlign=middle;whiteSpace=wrap;rounded=0;shadow=0;glass=0;comic=0;fontFamily=Courier New;fontSize=15;fontStyle=1;rotation=-90;" parent="1" vertex="1">
          <mxGeometry x="-211" y="-99.99999999999977" width="90" height="20" as="geometry" />
        </mxCell>
        <mxCell id="ZytXiSbGGcMKnFnPFabf-30" value="Invisible" style="text;html=1;strokeColor=none;fillColor=none;align=center;verticalAlign=middle;whiteSpace=wrap;rounded=0;shadow=0;glass=0;comic=0;fontFamily=Courier New;fontSize=15;fontStyle=1;rotation=-90;" parent="1" vertex="1">
          <mxGeometry x="-210" y="470.0000000000002" width="90" height="20" as="geometry" />
        </mxCell>
        <UserObject label="" tooltip="Component" id="ZytXiSbGGcMKnFnPFabf-31">
          <mxCell style="ellipse;whiteSpace=wrap;html=1;aspect=fixed;strokeColor=#000000;fillColor=#ffffff;fontFamily=Helvetica;fontSize=13;align=center;strokeWidth=2;" parent="1" vertex="1">
            <mxGeometry x="620" y="-110" width="20" height="20" as="geometry" />
          </mxCell>
        </UserObject>
        <mxCell id="ZytXiSbGGcMKnFnPFabf-34" value="Control" style="text;html=1;align=center;verticalAlign=middle;resizable=0;points=[];autosize=1;" parent="1" vertex="1">
          <mxGeometry x="640" y="-100" width="50" height="20" as="geometry" />
        </mxCell>
        <UserObject label="" tooltip="Component" id="ZytXiSbGGcMKnFnPFabf-35">
          <mxCell style="ellipse;whiteSpace=wrap;html=1;aspect=fixed;strokeColor=#000000;fillColor=#ffffff;fontFamily=Helvetica;fontSize=13;align=center;strokeWidth=2;" parent="1" vertex="1">
            <mxGeometry x="210" y="-100" width="20" height="20" as="geometry" />
          </mxCell>
        </UserObject>
        <mxCell id="ZytXiSbGGcMKnFnPFabf-36" value="Individuality" style="text;html=1;align=center;verticalAlign=middle;resizable=0;points=[];autosize=1;" parent="1" vertex="1">
          <mxGeometry x="230" y="-110" width="80" height="20" as="geometry" />
        </mxCell>
        <mxCell id="ZytXiSbGGcMKnFnPFabf-39" value="Agency" style="text;html=1;align=center;verticalAlign=middle;resizable=0;points=[];autosize=1;rotation=0;" parent="1" vertex="1">
          <mxGeometry x="340" y="-50" width="60" height="20" as="geometry" />
        </mxCell>
        <UserObject label="" tooltip="Component" id="ZytXiSbGGcMKnFnPFabf-40">
          <mxCell style="ellipse;whiteSpace=wrap;html=1;aspect=fixed;strokeColor=#000000;fillColor=#ffffff;fontFamily=Helvetica;fontSize=13;align=center;strokeWidth=2;" parent="1" vertex="1">
            <mxGeometry x="230" y="20" width="20" height="20" as="geometry" />
          </mxCell>
        </UserObject>
        <mxCell id="ZytXiSbGGcMKnFnPFabf-41" value="Connectednesss" style="text;html=1;align=center;verticalAlign=middle;resizable=0;points=[];autosize=1;" parent="1" vertex="1">
          <mxGeometry x="210" width="100" height="20" as="geometry" />
        </mxCell>
        <mxCell id="ZytXiSbGGcMKnFnPFabf-44" value="" style="shape=mxgraph.bpmn.shape;html=1;verticalLabelPosition=bottom;labelBackgroundColor=#ffffff;verticalAlign=top;align=center;perimeter=ellipsePerimeter;outlineConnect=0;outline=end;symbol=terminate;rotation=0;fontStyle=1" parent="1" vertex="1">
          <mxGeometry x="220" y="110" width="20" height="20" as="geometry" />
        </mxCell>
        <mxCell id="ZytXiSbGGcMKnFnPFabf-45" value="Collective" style="text;html=1;align=center;verticalAlign=middle;resizable=0;points=[];autosize=1;" parent="1" vertex="1">
          <mxGeometry x="220" y="130" width="70" height="20" as="geometry" />
        </mxCell>
        <mxCell id="ZytXiSbGGcMKnFnPFabf-46" value="" style="shape=mxgraph.bpmn.shape;html=1;verticalLabelPosition=bottom;labelBackgroundColor=#ffffff;verticalAlign=top;align=center;perimeter=ellipsePerimeter;outlineConnect=0;outline=end;symbol=terminate;rotation=0;fontStyle=1" parent="1" vertex="1">
          <mxGeometry x="535" y="20" width="20" height="20" as="geometry" />
        </mxCell>
        <mxCell id="ZytXiSbGGcMKnFnPFabf-47" value="Power" style="text;html=1;align=center;verticalAlign=middle;resizable=0;points=[];autosize=1;" parent="1" vertex="1">
          <mxGeometry x="520" width="50" height="20" as="geometry" />
        </mxCell>
        <UserObject label="" tooltip="Component" id="ZytXiSbGGcMKnFnPFabf-48">
          <mxCell style="ellipse;whiteSpace=wrap;html=1;aspect=fixed;strokeColor=#000000;fillColor=#ffffff;fontFamily=Helvetica;fontSize=13;align=center;strokeWidth=2;" parent="1" vertex="1">
            <mxGeometry x="210" y="200" width="20" height="20" as="geometry" />
          </mxCell>
        </UserObject>
        <mxCell id="ZytXiSbGGcMKnFnPFabf-49" value="Calmness" style="text;html=1;align=center;verticalAlign=middle;resizable=0;points=[];autosize=1;" parent="1" vertex="1">
          <mxGeometry x="230" y="210" width="70" height="20" as="geometry" />
        </mxCell>
        <UserObject label="" tooltip="Component" id="ZytXiSbGGcMKnFnPFabf-50">
          <mxCell style="ellipse;whiteSpace=wrap;html=1;aspect=fixed;strokeColor=#000000;fillColor=#ffffff;fontFamily=Helvetica;fontSize=13;align=center;strokeWidth=2;" parent="1" vertex="1">
            <mxGeometry x="700" y="230" width="20" height="20" as="geometry" />
          </mxCell>
        </UserObject>
        <mxCell id="ZytXiSbGGcMKnFnPFabf-51" value="Competition" style="text;html=1;align=center;verticalAlign=middle;resizable=0;points=[];autosize=1;" parent="1" vertex="1">
          <mxGeometry x="620" y="230" width="80" height="20" as="geometry" />
        </mxCell>
        <mxCell id="ZytXiSbGGcMKnFnPFabf-55" value="Values" style="text;html=1;align=center;verticalAlign=middle;resizable=0;points=[];autosize=1;" parent="1" vertex="1">
          <mxGeometry x="650" y="270" width="50" height="20" as="geometry" />
        </mxCell>
        <mxCell id="ZytXiSbGGcMKnFnPFabf-56" value="" style="shape=mxgraph.bpmn.shape;html=1;verticalLabelPosition=bottom;labelBackgroundColor=#ffffff;verticalAlign=top;align=center;perimeter=ellipsePerimeter;outlineConnect=0;outline=end;symbol=terminate;rotation=0;fontStyle=1" parent="1" vertex="1">
          <mxGeometry x="465" y="250" width="20" height="20" as="geometry" />
        </mxCell>
        <mxCell id="ZytXiSbGGcMKnFnPFabf-57" value="" style="shape=mxgraph.bpmn.shape;html=1;verticalLabelPosition=bottom;labelBackgroundColor=#ffffff;verticalAlign=top;align=center;perimeter=ellipsePerimeter;outlineConnect=0;outline=end;symbol=terminate;rotation=0;fontStyle=1" parent="1" vertex="1">
          <mxGeometry x="655" y="290" width="20" height="20" as="geometry" />
        </mxCell>
        <mxCell id="ZytXiSbGGcMKnFnPFabf-58" value="" style="shape=mxgraph.bpmn.shape;html=1;verticalLabelPosition=bottom;labelBackgroundColor=#ffffff;verticalAlign=top;align=center;perimeter=ellipsePerimeter;outlineConnect=0;outline=end;symbol=terminate;rotation=0;fontStyle=1" parent="1" vertex="1">
          <mxGeometry x="425" y="310" width="20" height="20" as="geometry" />
        </mxCell>
        <mxCell id="ZytXiSbGGcMKnFnPFabf-59" value="Gameplay" style="text;html=1;align=center;verticalAlign=middle;resizable=0;points=[];autosize=1;" parent="1" vertex="1">
          <mxGeometry x="370" y="340" width="70" height="20" as="geometry" />
        </mxCell>
        <mxCell id="ZytXiSbGGcMKnFnPFabf-60" value="" style="shape=mxgraph.bpmn.shape;html=1;verticalLabelPosition=bottom;labelBackgroundColor=#ffffff;verticalAlign=top;align=center;perimeter=ellipsePerimeter;outlineConnect=0;outline=end;symbol=terminate;rotation=0;fontStyle=1" parent="1" vertex="1">
          <mxGeometry x="445" y="400" width="20" height="20" as="geometry" />
        </mxCell>
        <mxCell id="ZytXiSbGGcMKnFnPFabf-61" value="Doctrine" style="text;html=1;align=center;verticalAlign=middle;resizable=0;points=[];autosize=1;" parent="1" vertex="1">
          <mxGeometry x="450" y="380" width="60" height="20" as="geometry" />
        </mxCell>
        <UserObject label="" tooltip="Component" id="ZytXiSbGGcMKnFnPFabf-62">
          <mxCell style="ellipse;whiteSpace=wrap;html=1;aspect=fixed;strokeColor=#000000;fillColor=#ffffff;fontFamily=Helvetica;fontSize=13;align=center;strokeWidth=2;" parent="1" vertex="1">
            <mxGeometry x="270" y="470" width="20" height="20" as="geometry" />
          </mxCell>
        </UserObject>
        <mxCell id="ZytXiSbGGcMKnFnPFabf-63" value="Intuition" style="text;html=1;align=center;verticalAlign=middle;resizable=0;points=[];autosize=1;" parent="1" vertex="1">
          <mxGeometry x="210" y="470" width="60" height="20" as="geometry" />
        </mxCell>
        <UserObject label="" tooltip="Component" id="ZytXiSbGGcMKnFnPFabf-64">
          <mxCell style="ellipse;whiteSpace=wrap;html=1;aspect=fixed;strokeColor=#000000;fillColor=#ffffff;fontFamily=Helvetica;fontSize=13;align=center;strokeWidth=2;" parent="1" vertex="1">
            <mxGeometry x="415" y="560" width="20" height="20" as="geometry" />
          </mxCell>
        </UserObject>
        <mxCell id="ZytXiSbGGcMKnFnPFabf-65" value="Landscape" style="text;html=1;align=center;verticalAlign=middle;resizable=0;points=[];autosize=1;" parent="1" vertex="1">
          <mxGeometry x="185" y="-30" width="70" height="20" as="geometry" />
        </mxCell>
        <UserObject label="" tooltip="Component" id="ZytXiSbGGcMKnFnPFabf-66">
          <mxCell style="ellipse;whiteSpace=wrap;html=1;aspect=fixed;strokeColor=#000000;fillColor=#ffffff;fontFamily=Helvetica;fontSize=13;align=center;strokeWidth=2;" parent="1" vertex="1">
            <mxGeometry x="630" y="507" width="20" height="20" as="geometry" />
          </mxCell>
        </UserObject>
        <mxCell id="ZytXiSbGGcMKnFnPFabf-68" value="Symbol" style="text;html=1;align=center;verticalAlign=middle;resizable=0;points=[];autosize=1;" parent="1" vertex="1">
          <mxGeometry x="620" y="530" width="60" height="20" as="geometry" />
        </mxCell>
        <UserObject label="" tooltip="Component" id="ZytXiSbGGcMKnFnPFabf-76">
          <mxCell style="ellipse;whiteSpace=wrap;html=1;aspect=fixed;strokeColor=#000000;fillColor=#ffffff;fontFamily=Helvetica;fontSize=13;align=center;strokeWidth=2;" parent="1" vertex="1">
            <mxGeometry x="180" y="526" width="20" height="20" as="geometry" />
          </mxCell>
        </UserObject>
        <mxCell id="ZytXiSbGGcMKnFnPFabf-77" value="Icon" style="text;html=1;align=center;verticalAlign=middle;resizable=0;points=[];autosize=1;" parent="1" vertex="1">
          <mxGeometry x="155" y="550" width="40" height="20" as="geometry" />
        </mxCell>
        <mxCell id="ZytXiSbGGcMKnFnPFabf-82" value="" style="shape=mxgraph.bpmn.shape;html=1;verticalLabelPosition=bottom;labelBackgroundColor=#ffffff;verticalAlign=top;align=center;perimeter=ellipsePerimeter;outlineConnect=0;outline=end;symbol=terminate;rotation=0;fontStyle=1" parent="1" vertex="1">
          <mxGeometry x="645" y="420" width="20" height="20" as="geometry" />
        </mxCell>
        <mxCell id="ZytXiSbGGcMKnFnPFabf-85" value="Reasoning" style="text;html=1;align=center;verticalAlign=middle;resizable=0;points=[];autosize=1;" parent="1" vertex="1">
          <mxGeometry x="680" y="430" width="70" height="20" as="geometry" />
        </mxCell>
        <UserObject label="" tooltip="Component" id="ZytXiSbGGcMKnFnPFabf-38">
          <mxCell style="ellipse;whiteSpace=wrap;html=1;aspect=fixed;strokeColor=#000000;fillColor=#ffffff;fontFamily=Helvetica;fontSize=13;align=center;strokeWidth=2;" parent="1" vertex="1">
            <mxGeometry x="335" y="-30" width="20" height="20" as="geometry" />
          </mxCell>
        </UserObject>
        <UserObject label="" tooltip="Interface / line of the present" id="ZytXiSbGGcMKnFnPFabf-141">
          <mxCell style="endArrow=none;html=1;strokeColor=#000000;strokeWidth=1;fontFamily=Courier New;fontSize=14;fontColor=#000000;entryX=0.5;entryY=1;entryDx=0;entryDy=0;exitX=0;exitY=0.5;exitDx=0;exitDy=0;" parent="1" source="ZytXiSbGGcMKnFnPFabf-66" target="ZytXiSbGGcMKnFnPFabf-62" edge="1">
            <mxGeometry width="50" height="50" relative="1" as="geometry">
              <mxPoint x="290" y="533" as="sourcePoint" />
              <mxPoint x="120" y="450" as="targetPoint" />
            </mxGeometry>
          </mxCell>
        </UserObject>
        <mxCell id="ZytXiSbGGcMKnFnPFabf-75" value="Index" style="text;html=1;align=center;verticalAlign=middle;resizable=0;points=[];autosize=1;" parent="1" vertex="1">
          <mxGeometry x="440" y="570" width="40" height="20" as="geometry" />
        </mxCell>
        <mxCell id="ZytXiSbGGcMKnFnPFabf-143" value="" style="endArrow=none;dashed=1;html=1;strokeWidth=1;fontSize=26;strokeColor=#000000;" parent="1" edge="1">
          <mxGeometry width="50" height="50" relative="1" as="geometry">
            <mxPoint x="320" y="650" as="sourcePoint" />
            <mxPoint x="320" y="540" as="targetPoint" />
          </mxGeometry>
        </mxCell>
        <UserObject label="" tooltip="Interface / line of the present" id="ZytXiSbGGcMKnFnPFabf-145">
          <mxCell style="endArrow=none;html=1;strokeColor=#000000;strokeWidth=1;fontFamily=Courier New;fontSize=14;fontColor=#000000;entryX=1;entryY=0.5;entryDx=0;entryDy=0;exitX=0;exitY=1;exitDx=0;exitDy=0;" parent="1" source="ZytXiSbGGcMKnFnPFabf-66" target="ZytXiSbGGcMKnFnPFabf-64" edge="1">
            <mxGeometry width="50" height="50" relative="1" as="geometry">
              <mxPoint x="640" y="510" as="sourcePoint" />
              <mxPoint x="280" y="540" as="targetPoint" />
            </mxGeometry>
          </mxCell>
        </UserObject>
        <UserObject label="" tooltip="Interface / line of the present" id="ZytXiSbGGcMKnFnPFabf-146">
          <mxCell style="endArrow=none;html=1;strokeColor=#000000;strokeWidth=1;fontFamily=Courier New;fontSize=14;fontColor=#000000;entryX=1;entryY=0.5;entryDx=0;entryDy=0;exitX=0;exitY=0.5;exitDx=0;exitDy=0;" parent="1" source="ZytXiSbGGcMKnFnPFabf-66" target="ZytXiSbGGcMKnFnPFabf-76" edge="1">
            <mxGeometry width="50" height="50" relative="1" as="geometry">
              <mxPoint x="230" y="590" as="sourcePoint" />
              <mxPoint x="260" y="540" as="targetPoint" />
            </mxGeometry>
          </mxCell>
        </UserObject>
        <UserObject label="" tooltip="Interface / line of the present" id="ZytXiSbGGcMKnFnPFabf-149">
          <mxCell style="endArrow=none;html=1;strokeColor=#000000;strokeWidth=1;fontFamily=Courier New;fontSize=14;fontColor=#000000;entryX=0;entryY=0.5;entryDx=0;entryDy=0;exitX=1;exitY=1;exitDx=0;exitDy=0;" parent="1" source="ZytXiSbGGcMKnFnPFabf-76" target="ZytXiSbGGcMKnFnPFabf-64" edge="1">
            <mxGeometry width="50" height="50" relative="1" as="geometry">
              <mxPoint x="50" y="510" as="sourcePoint" />
              <mxPoint x="80" y="460" as="targetPoint" />
            </mxGeometry>
          </mxCell>
        </UserObject>
        <UserObject label="" tooltip="Component" id="ZytXiSbGGcMKnFnPFabf-69">
          <mxCell style="ellipse;whiteSpace=wrap;html=1;aspect=fixed;strokeColor=#000000;fillColor=#ffffff;fontFamily=Helvetica;fontSize=13;align=center;strokeWidth=2;" parent="1" vertex="1">
            <mxGeometry x="215" y="-50" width="20" height="20" as="geometry" />
          </mxCell>
        </UserObject>
        <mxCell id="ZytXiSbGGcMKnFnPFabf-172" value="" style="endArrow=none;dashed=1;html=1;strokeWidth=1;fontSize=26;strokeColor=#000000;" parent="1" edge="1">
          <mxGeometry width="50" height="50" relative="1" as="geometry">
            <mxPoint x="320" y="540" as="sourcePoint" />
            <mxPoint x="320.9661016949153" y="255" as="targetPoint" />
          </mxGeometry>
        </mxCell>
        <mxCell id="ZytXiSbGGcMKnFnPFabf-174" value="" style="shape=mxgraph.bpmn.shape;html=1;verticalLabelPosition=bottom;labelBackgroundColor=#ffffff;verticalAlign=top;align=center;perimeter=ellipsePerimeter;outlineConnect=0;outline=end;symbol=terminate;rotation=0;fontStyle=1" parent="1" vertex="1">
          <mxGeometry x="630" y="120" width="20" height="20" as="geometry" />
        </mxCell>
        <mxCell id="ZytXiSbGGcMKnFnPFabf-178" value="Organization" style="text;html=1;align=center;verticalAlign=middle;resizable=0;points=[];autosize=1;" parent="1" vertex="1">
          <mxGeometry x="640" y="140" width="80" height="20" as="geometry" />
        </mxCell>
        <UserObject label="" tooltip="Interface / line of the present" id="4vb0ptWr3kvrNmNZ8Jyr-13">
          <mxCell style="endArrow=none;html=1;strokeColor=#000000;strokeWidth=1;fontFamily=Courier New;fontSize=14;fontColor=#000000;exitX=1;exitY=0.5;exitDx=0;exitDy=0;entryX=0.145;entryY=0.855;entryDx=0;entryDy=0;entryPerimeter=0;" edge="1" parent="1" source="ZytXiSbGGcMKnFnPFabf-62" target="ZytXiSbGGcMKnFnPFabf-82">
            <mxGeometry width="50" height="50" relative="1" as="geometry">
              <mxPoint x="415" y="460" as="sourcePoint" />
              <mxPoint x="445" y="410" as="targetPoint" />
            </mxGeometry>
          </mxCell>
        </UserObject>
        <mxCell id="4vb0ptWr3kvrNmNZ8Jyr-23" value="Behavior" style="text;html=1;align=center;verticalAlign=middle;resizable=0;points=[];autosize=1;" vertex="1" parent="1">
          <mxGeometry x="475" y="270" width="60" height="20" as="geometry" />
        </mxCell>
      </root>
    </mxGraphModel>
  </diagram>
</mxfile>
